P3
50 50
255
 0 0 0     0 0 0     0 0 0     0 0 0     0 0 0     0 0 0     0 0 0     0 0 0     0 0 0     0 0 0     0 0 0     0 0 0     0 0 0     0 0 0     0 0 0     0 0 0     0 0 0     0 0 0     0 0 0     0 0 0     0 0 0     0 0 0     0 0 0     0 0 0     0 0 0     0 0 0     0 0 0     0 0 0     0 0 0     0 0 0     0 0 0     0 0 0     0 0 0     0 0 0     0 0 0     0 0 0     0 0 0     0 0 0     0 0 0     0 0 0     0 0 0     0 0 0     0 0 0     0 0 0     0 0 0     0 0 0     0 0 0     0 0 0     0 0 0     69 69 69     
0 0 0     0 0 0     0 0 0     0 0 0     0 0 0     0 0 0     0 0 0     0 0 0     0 0 0     0 0 0     0 0 0     0 0 0     0 0 0     0 0 0     0 0 0     0 0 0     0 0 0     0 0 0     0 0 0     0 0 0     0 0 0     0 0 0     0 0 0     0 0 0     0 0 0     0 0 0     0 0 0     0 0 0     0 0 0     0 0 0     0 0 0     0 0 0     0 0 0     0 0 0     0 0 0     0 0 0     0 0 0     0 0 0     0 0 0     0 0 0     0 0 0     0 0 0     0 0 0     0 0 0     0 0 0     0 0 0     0 0 0     0 0 0     69 69 69     69 69 69     
0 0 0     0 0 0     0 0 0     0 0 0     0 0 0     0 0 0     0 0 0     0 0 0     0 0 0     0 0 0     0 0 0     0 0 0     0 0 0     0 0 0     0 0 0     0 0 0     0 0 0     0 0 0     0 0 0     0 0 0     0 0 0     0 0 0     0 0 0     0 0 0     0 0 0     0 0 0     0 0 0     0 0 0     0 0 0     0 0 0     0 0 0     0 0 0     0 0 0     0 0 0     0 0 0     0 0 0     0 0 0     0 0 0     0 0 0     0 0 0     0 0 0     0 0 0     0 0 0     0 0 0     0 0 0     0 0 0     0 0 0     69 69 69     69 69 69     69 69 69     
0 0 0     0 0 0     0 0 0     0 0 0     0 0 0     0 0 0     0 0 0     0 0 0     0 0 0     0 0 0     0 0 0     0 0 0     0 0 0     0 0 0     0 0 0     0 0 0     0 0 0     0 0 0     0 0 0     0 0 0     0 0 0     0 0 0     0 0 0     0 0 0     0 0 0     0 0 0     0 0 0     0 0 0     0 0 0     0 0 0     0 0 0     0 0 0     0 0 0     0 0 0     0 0 0     0 0 0     0 0 0     0 0 0     0 0 0     0 0 0     0 0 0     0 0 0     0 0 0     0 0 0     0 0 0     0 0 0     69 69 69     69 69 69     69 69 69     0 0 0     
0 0 0     0 0 0     0 0 0     0 0 0     0 0 0     0 0 0     0 0 0     0 0 0     0 0 0     0 0 0     0 0 0     0 0 0     0 0 0     0 0 0     0 0 0     0 0 0     0 0 0     0 0 0     0 0 0     0 0 0     0 0 0     0 0 0     0 0 0     0 0 0     0 0 0     0 0 0     0 0 0     0 0 0     0 0 0     0 0 0     0 0 0     0 0 0     0 0 0     0 0 0     0 0 0     0 0 0     0 0 0     0 0 0     0 0 0     0 0 0     0 0 0     0 0 0     0 0 0     0 0 0     0 0 0     69 69 69     69 69 69     69 69 69     69 69 69     0 0 0     
0 0 0     0 0 0     0 0 0     0 0 0     0 0 0     0 0 0     0 0 0     0 0 0     0 0 0     0 0 0     0 0 0     0 0 0     0 0 0     0 0 0     0 0 0     0 0 0     0 0 0     0 0 0     0 0 0     0 0 0     0 0 0     0 0 0     0 0 0     0 0 0     0 0 0     0 0 0     0 0 0     0 0 0     0 0 0     0 0 0     0 0 0     0 0 0     0 0 0     0 0 0     0 0 0     0 0 0     0 0 0     0 0 0     0 0 0     0 0 0     0 0 0     0 0 0     0 0 0     0 0 0     69 69 69     69 69 69     69 69 69     69 69 69     69 69 69     0 0 0     
0 0 0     0 0 0     0 0 0     0 0 0     0 0 0     0 0 0     0 0 0     0 0 0     0 0 0     0 0 0     0 0 0     0 0 0     0 0 0     0 0 0     0 0 0     0 0 0     0 0 0     0 0 0     0 0 0     0 0 0     0 0 0     0 0 0     0 0 0     0 0 0     0 0 0     0 0 0     0 0 0     0 0 0     0 0 0     0 0 0     0 0 0     0 0 0     0 0 0     0 0 0     0 0 0     0 0 0     0 0 0     0 0 0     0 0 0     0 0 0     0 0 0     0 0 0     0 0 0     69 69 69     69 69 69     69 69 69     69 69 69     69 69 69     69 69 69     0 0 0     
0 0 0     0 0 0     0 0 0     0 0 0     0 0 0     0 0 0     0 0 0     0 0 0     0 0 0     0 0 0     0 0 0     0 0 0     0 0 0     0 0 0     0 0 0     0 0 0     0 0 0     0 0 0     0 0 0     0 0 0     0 0 0     0 0 0     0 0 0     0 0 0     0 0 0     0 0 0     0 0 0     0 0 0     0 0 0     0 0 0     0 0 0     0 0 0     0 0 0     0 0 0     0 0 0     0 0 0     0 0 0     0 0 0     0 0 0     0 0 0     0 0 0     0 0 0     69 69 69     69 69 69     69 69 69     69 69 69     69 69 69     69 69 69     0 0 0     0 0 0     
0 0 0     0 0 0     0 0 0     0 0 0     0 0 0     0 0 0     0 0 0     0 0 0     0 0 0     0 0 0     0 0 0     0 0 0     0 0 0     0 0 0     0 0 0     0 0 0     0 0 0     0 0 0     0 0 0     0 0 0     0 0 0     0 0 0     0 0 0     0 0 0     0 0 0     0 0 0     0 0 0     0 0 0     0 0 0     0 0 0     0 0 0     0 0 0     0 0 0     0 0 0     0 0 0     0 0 0     0 0 0     0 0 0     0 0 0     0 0 0     0 0 0     69 69 69     69 69 69     69 69 69     69 69 69     69 69 69     69 69 69     69 69 69     0 0 0     0 0 0     
0 0 0     0 0 0     0 0 0     0 0 0     0 0 0     0 0 0     0 0 0     0 0 0     0 0 0     0 0 0     0 0 0     0 0 0     0 0 0     0 0 0     0 0 0     0 0 0     0 0 0     0 0 0     0 0 0     0 0 0     0 0 0     0 0 0     0 0 0     0 0 0     0 0 0     0 0 0     0 0 0     0 0 0     0 0 0     0 0 0     0 0 0     0 0 0     0 0 0     0 0 0     0 0 0     0 0 0     0 0 0     0 0 0     0 0 0     0 0 0     69 69 69     69 69 69     69 69 69     69 69 69     69 69 69     69 69 69     69 69 69     69 69 69     0 0 0     0 0 0     
0 0 0     0 0 0     0 0 0     0 0 0     0 0 0     0 0 0     0 0 0     0 0 0     0 0 0     0 0 0     0 0 0     0 0 0     0 0 0     0 0 0     0 0 0     0 0 0     0 0 0     0 0 0     0 0 0     0 0 0     0 0 0     0 0 0     0 0 0     0 0 0     0 0 0     0 0 0     0 0 0     0 0 0     0 0 0     0 0 0     0 0 0     0 0 0     0 0 0     0 0 0     0 0 0     0 0 0     0 0 0     0 0 0     0 0 0     69 69 69     69 69 69     69 69 69     69 69 69     69 69 69     69 69 69     69 69 69     69 69 69     69 69 69     0 0 0     0 0 0     
0 0 0     0 0 0     0 0 0     0 0 0     0 0 0     0 0 0     0 0 0     0 0 0     0 0 0     0 0 0     0 0 0     0 0 0     0 0 0     0 0 0     0 0 0     0 0 0     0 0 0     0 0 0     0 0 0     0 0 0     0 0 0     0 0 0     0 0 0     0 0 0     0 0 0     0 0 0     0 0 0     0 0 0     0 0 0     0 0 0     0 0 0     0 0 0     0 0 0     0 0 0     0 0 0     0 0 0     0 0 0     0 0 0     69 69 69     69 69 69     69 69 69     69 69 69     69 69 69     69 69 69     69 69 69     69 69 69     69 69 69     69 69 69     0 0 0     0 0 0     
0 0 0     0 0 0     0 0 0     0 0 0     0 0 0     0 0 0     0 0 0     0 0 0     0 0 0     0 0 0     0 0 0     0 0 0     0 0 0     0 0 0     0 0 0     0 0 0     0 0 0     0 0 0     0 0 0     0 0 0     0 0 0     0 0 0     0 0 0     0 0 0     0 0 0     0 0 0     0 0 0     0 0 0     0 0 0     0 0 0     0 0 0     0 0 0     0 0 0     0 0 0     0 0 0     0 0 0     0 0 0     69 69 69     69 69 69     69 69 69     69 69 69     69 69 69     69 69 69     69 69 69     69 69 69     69 69 69     69 69 69     69 69 69     0 0 0     0 0 0     
0 0 0     0 0 0     0 0 0     0 0 0     0 0 0     0 0 0     0 0 0     0 0 0     0 0 0     0 0 0     0 0 0     0 0 0     0 0 0     0 0 0     0 0 0     0 0 0     0 0 0     0 0 0     0 0 0     0 0 0     0 0 0     0 0 0     0 0 0     0 0 0     0 0 0     0 0 0     0 0 0     0 0 0     0 0 0     0 0 0     0 0 0     0 0 0     0 0 0     0 0 0     0 0 0     0 0 0     69 69 69     69 69 69     69 69 69     69 69 69     69 69 69     69 69 69     69 69 69     69 69 69     69 69 69     69 69 69     69 69 69     0 0 0     0 0 0     0 0 0     
0 0 0     0 0 0     0 0 0     0 0 0     0 0 0     0 0 0     0 0 0     0 0 0     0 0 0     0 0 0     0 0 0     0 0 0     0 0 0     0 0 0     0 0 0     0 0 0     0 0 0     0 0 0     0 0 0     0 0 0     0 0 0     0 0 0     0 0 0     0 0 0     0 0 0     0 0 0     0 0 0     0 0 0     0 0 0     0 0 0     0 0 0     0 0 0     0 0 0     0 0 0     0 0 0     0 0 0     69 69 69     69 69 69     69 69 69     69 69 69     69 69 69     69 69 69     69 69 69     69 69 69     69 69 69     69 69 69     69 69 69     0 0 0     0 0 0     0 0 0     
0 0 0     0 0 0     0 0 0     0 0 0     0 0 0     0 0 0     0 0 0     0 0 0     0 0 0     0 0 0     0 0 0     0 0 0     0 0 0     0 0 0     0 0 0     0 0 0     0 0 0     0 0 0     0 0 0     0 0 0     0 0 0     0 0 0     0 0 0     0 0 0     0 0 0     0 0 0     0 0 0     0 0 0     0 0 0     0 0 0     0 0 0     0 0 0     0 0 0     0 0 0     69 69 69     69 69 69     69 69 69     69 69 69     69 69 69     69 69 69     69 69 69     69 69 69     69 69 69     69 69 69     69 69 69     69 69 69     69 69 69     0 0 0     0 0 0     0 0 0     
0 0 0     0 0 0     0 0 0     0 0 0     0 0 0     0 0 0     0 0 0     0 0 0     0 0 0     0 0 0     0 0 0     0 0 0     0 0 0     0 0 0     0 0 0     0 0 0     0 0 0     0 0 0     0 0 0     0 0 0     0 0 0     0 0 0     0 0 0     0 0 0     0 0 0     0 0 0     0 0 0     0 0 0     0 0 0     0 0 0     0 0 0     0 0 0     0 0 0     69 69 69     69 69 69     69 69 69     69 69 69     69 69 69     69 69 69     69 69 69     69 69 69     69 69 69     69 69 69     69 69 69     69 69 69     69 69 69     69 69 69     0 0 0     0 0 0     0 0 0     
0 0 0     0 0 0     0 0 0     0 0 0     0 0 0     0 0 0     0 0 0     0 0 0     0 0 0     0 0 0     0 0 0     0 0 0     0 0 0     0 0 0     0 0 0     0 0 0     0 0 0     0 0 0     0 0 0     0 0 0     0 0 0     0 0 0     0 0 0     0 0 0     0 0 0     0 0 0     0 0 0     0 0 0     0 0 0     0 0 0     0 0 0     0 0 0     0 0 0     69 69 69     69 69 69     69 69 69     69 69 69     69 69 69     69 69 69     69 69 69     69 69 69     69 69 69     69 69 69     69 69 69     69 69 69     69 69 69     69 69 69     0 0 0     0 0 0     0 0 0     
0 0 0     0 0 0     0 0 0     0 0 0     0 0 0     0 0 0     0 0 0     0 0 0     0 0 0     0 0 0     0 0 0     0 0 0     0 0 0     0 0 0     0 0 0     0 0 0     0 0 0     0 0 0     0 0 0     0 0 0     0 0 0     0 0 0     0 0 0     0 0 0     0 0 0     0 0 0     0 0 0     0 0 0     0 0 0     0 0 0     0 0 0     69 69 69     69 69 69     69 69 69     69 69 69     69 69 69     69 69 69     69 69 69     69 69 69     69 69 69     69 69 69     69 69 69     69 69 69     69 69 69     69 69 69     69 69 69     0 0 0     0 0 0     0 0 0     0 0 0     
0 0 0     0 0 0     0 0 0     0 0 0     0 0 0     0 0 0     0 0 0     0 0 0     0 0 0     0 0 0     0 0 0     0 0 0     0 0 0     0 0 0     0 0 0     0 0 0     0 0 0     0 0 0     0 0 0     0 0 0     0 0 0     0 0 0     0 0 0     0 0 0     0 0 0     0 0 0     0 0 0     0 0 0     0 0 0     0 0 0     69 69 69     69 69 69     69 69 69     69 69 69     69 69 69     69 69 69     69 69 69     69 69 69     69 69 69     69 69 69     69 69 69     69 69 69     69 69 69     69 69 69     69 69 69     69 69 69     0 0 0     0 0 0     0 0 0     0 0 0     
0 0 0     0 0 0     0 0 0     0 0 0     0 0 0     0 0 0     0 0 0     0 0 0     0 0 0     0 0 0     0 0 0     0 0 0     0 0 0     0 0 0     0 0 0     0 0 0     0 0 0     0 0 0     0 0 0     0 0 0     0 0 0     0 0 0     0 0 0     0 0 0     0 0 0     0 0 0     0 0 0     0 0 0     0 0 0     0 0 0     69 69 69     69 69 69     69 69 69     69 69 69     69 69 69     69 69 69     69 69 69     69 69 69     69 69 69     69 69 69     69 69 69     69 69 69     69 69 69     69 69 69     69 69 69     69 69 69     0 0 0     0 0 0     0 0 0     0 0 0     
0 0 0     0 0 0     0 0 0     0 0 0     0 0 0     0 0 0     0 0 0     0 0 0     0 0 0     0 0 0     0 0 0     0 0 0     0 0 0     0 0 0     0 0 0     0 0 0     0 0 0     0 0 0     0 0 0     0 0 0     0 0 0     0 0 0     0 0 0     0 0 0     0 0 0     0 0 0     0 0 0     0 0 0     69 69 69     69 69 69     69 69 69     69 69 69     69 69 69     69 69 69     69 69 69     69 69 69     69 69 69     69 69 69     69 69 69     69 69 69     69 69 69     69 69 69     69 69 69     69 69 69     69 69 69     69 69 69     0 0 0     0 0 0     0 0 0     0 0 0     
0 0 0     0 0 0     0 0 0     0 0 0     0 0 0     0 0 0     0 0 0     0 0 0     0 0 0     0 0 0     0 0 0     0 0 0     0 0 0     0 0 0     0 0 0     0 0 0     0 0 0     0 0 0     0 0 0     0 0 0     0 0 0     0 0 0     0 0 0     0 0 0     0 0 0     0 0 0     0 0 0     69 69 69     69 69 69     69 69 69     69 69 69     69 69 69     69 69 69     69 69 69     69 69 69     69 69 69     69 69 69     69 69 69     69 69 69     69 69 69     69 69 69     69 69 69     69 69 69     69 69 69     69 69 69     0 0 0     0 0 0     0 0 0     0 0 0     0 0 0     
0 0 0     0 0 0     0 0 0     0 0 0     0 0 0     0 0 0     0 0 0     0 0 0     0 0 0     0 0 0     0 0 0     0 0 0     0 0 0     0 0 0     0 0 0     0 0 0     0 0 0     0 0 0     0 0 0     0 0 0     0 0 0     0 0 0     0 0 0     0 0 0     0 0 0     0 0 0     0 0 0     69 69 69     69 69 69     69 69 69     69 69 69     69 69 69     69 69 69     69 69 69     69 69 69     69 69 69     69 69 69     69 69 69     69 69 69     69 69 69     69 69 69     69 69 69     69 69 69     69 69 69     69 69 69     0 0 0     0 0 0     0 0 0     0 0 0     0 0 0     
0 0 0     0 0 0     0 0 0     0 0 0     0 0 0     0 0 0     0 0 0     0 0 0     0 0 0     0 0 0     0 0 0     0 0 0     0 0 0     0 0 0     0 0 0     0 0 0     0 0 0     0 0 0     0 0 0     0 0 0     0 0 0     0 0 0     0 0 0     0 0 0     0 0 0     69 69 69     69 69 69     69 69 69     69 69 69     69 69 69     69 69 69     69 69 69     69 69 69     69 69 69     69 69 69     69 69 69     69 69 69     69 69 69     69 69 69     69 69 69     69 69 69     69 69 69     69 69 69     69 69 69     69 69 69     0 0 0     0 0 0     0 0 0     0 0 0     0 0 0     
0 0 0     0 0 0     0 0 0     0 0 0     0 0 0     0 0 0     0 0 0     0 0 0     0 0 0     0 0 0     0 0 0     0 0 0     0 0 0     0 0 0     0 0 0     0 0 0     0 0 0     0 0 0     0 0 0     0 0 0     0 0 0     0 0 0     0 0 0     0 0 0     69 69 69     69 69 69     69 69 69     69 69 69     69 69 69     69 69 69     69 69 69     69 69 69     69 69 69     69 69 69     69 69 69     69 69 69     69 69 69     69 69 69     69 69 69     69 69 69     69 69 69     69 69 69     69 69 69     69 69 69     69 69 69     0 0 0     0 0 0     0 0 0     0 0 0     0 0 0     
0 0 0     0 0 0     0 0 0     0 0 0     0 0 0     0 0 0     0 0 0     0 0 0     0 0 0     0 0 0     0 0 0     0 0 0     0 0 0     0 0 0     0 0 0     0 0 0     0 0 0     0 0 0     0 0 0     0 0 0     0 0 0     0 0 0     0 0 0     0 0 0     69 69 69     69 69 69     69 69 69     69 69 69     69 69 69     69 69 69     69 69 69     69 69 69     69 69 69     69 69 69     69 69 69     69 69 69     69 69 69     69 69 69     69 69 69     69 69 69     69 69 69     69 69 69     69 69 69     69 69 69     69 69 69     0 0 0     0 0 0     0 0 0     0 0 0     0 0 0     
0 0 0     0 0 0     0 0 0     0 0 0     0 0 0     0 0 0     0 0 0     0 0 0     0 0 0     0 0 0     0 0 0     0 0 0     0 0 0     0 0 0     0 0 0     0 0 0     0 0 0     0 0 0     0 0 0     0 0 0     0 0 0     0 0 0     69 69 69     69 69 69     69 69 69     69 69 69     69 69 69     69 69 69     69 69 69     69 69 69     69 69 69     69 69 69     69 69 69     69 69 69     69 69 69     69 69 69     69 69 69     69 69 69     69 69 69     69 69 69     69 69 69     69 69 69     69 69 69     69 69 69     0 0 0     0 0 0     0 0 0     0 0 0     0 0 0     0 0 0     
0 0 0     0 0 0     0 0 0     0 0 0     0 0 0     0 0 0     0 0 0     0 0 0     0 0 0     0 0 0     0 0 0     0 0 0     0 0 0     0 0 0     0 0 0     0 0 0     0 0 0     0 0 0     0 0 0     0 0 0     0 0 0     69 69 69     69 69 69     69 69 69     69 69 69     69 69 69     69 69 69     69 69 69     69 69 69     69 69 69     69 69 69     69 69 69     69 69 69     69 69 69     69 69 69     69 69 69     69 69 69     69 69 69     69 69 69     69 69 69     69 69 69     69 69 69     69 69 69     69 69 69     0 0 0     0 0 0     0 0 0     0 0 0     0 0 0     0 0 0     
0 0 0     0 0 0     0 0 0     0 0 0     0 0 0     0 0 0     0 0 0     0 0 0     0 0 0     0 0 0     0 0 0     0 0 0     0 0 0     0 0 0     0 0 0     0 0 0     0 0 0     0 0 0     0 0 0     0 0 0     0 0 0     69 69 69     69 69 69     69 69 69     69 69 69     69 69 69     69 69 69     69 69 69     69 69 69     69 69 69     69 69 69     69 69 69     69 69 69     69 69 69     69 69 69     69 69 69     69 69 69     69 69 69     69 69 69     69 69 69     69 69 69     69 69 69     69 69 69     69 69 69     0 0 0     0 0 0     0 0 0     0 0 0     0 0 0     0 0 0     
0 0 0     0 0 0     0 0 0     0 0 0     0 0 0     0 0 0     0 0 0     0 0 0     0 0 0     0 0 0     0 0 0     0 0 0     0 0 0     0 0 0     0 0 0     0 0 0     0 0 0     0 0 0     0 0 0     69 69 69     69 69 69     69 69 69     69 69 69     69 69 69     69 69 69     69 69 69     69 69 69     69 69 69     69 69 69     69 69 69     69 69 69     69 69 69     69 69 69     69 69 69     69 69 69     69 69 69     69 69 69     69 69 69     69 69 69     69 69 69     69 69 69     69 69 69     69 69 69     69 69 69     0 0 0     0 0 0     0 0 0     0 0 0     0 0 0     0 0 0     
0 0 0     0 0 0     0 0 0     0 0 0     0 0 0     0 0 0     0 0 0     0 0 0     0 0 0     0 0 0     0 0 0     0 0 0     0 0 0     0 0 0     0 0 0     0 0 0     0 0 0     0 0 0     69 69 69     69 69 69     69 69 69     69 69 69     69 69 69     69 69 69     69 69 69     69 69 69     69 69 69     69 69 69     69 69 69     69 69 69     69 69 69     69 69 69     69 69 69     69 69 69     138 138 138     69 69 69     69 69 69     69 69 69     69 69 69     69 69 69     69 69 69     69 69 69     69 69 69     69 69 69     0 0 0     0 0 0     0 0 0     0 0 0     0 0 0     0 0 0     
0 0 0     0 0 0     0 0 0     0 0 0     0 0 0     0 0 0     0 0 0     0 0 0     0 0 0     0 0 0     0 0 0     0 0 0     0 0 0     0 0 0     0 0 0     0 0 0     0 0 0     0 0 0     69 69 69     69 69 69     69 69 69     69 69 69     69 69 69     69 69 69     69 69 69     69 69 69     69 69 69     69 69 69     69 69 69     69 69 69     69 69 69     69 69 69     94 94 94     101 101 101     117 117 117     143 143 143     69 69 69     19 19 19     50 50 50     72 72 72     87 87 87     69 69 69     69 69 69     69 69 69     0 0 0     0 0 0     0 0 0     0 0 0     0 0 0     0 0 0     
0 0 0     0 0 0     0 0 0     0 0 0     0 0 0     0 0 0     0 0 0     0 0 0     0 0 0     0 0 0     0 0 0     0 0 0     0 0 0     0 0 0     0 0 0     0 0 0     69 69 69     69 69 69     69 69 69     69 69 69     69 69 69     69 69 69     69 69 69     69 69 69     69 69 69     69 69 69     69 69 69     69 69 69     69 69 69     69 69 69     69 69 69     80 80 80     75 75 75     84 84 84     101 101 101     124 124 124     0 0 0     27 27 27     52 52 52     73 73 73     168 168 168     139 139 139     172 172 172     0 0 0     0 0 0     0 0 0     0 0 0     0 0 0     0 0 0     0 0 0     
0 0 0     0 0 0     0 0 0     0 0 0     0 0 0     0 0 0     0 0 0     0 0 0     0 0 0     0 0 0     0 0 0     0 0 0     0 0 0     0 0 0     0 0 0     69 69 69     69 69 69     69 69 69     69 69 69     69 69 69     69 69 69     69 69 69     69 69 69     69 69 69     69 69 69     69 69 69     69 69 69     69 69 69     69 69 69     69 69 69     69 69 69     69 69 69     69 69 69     70 70 70     86 86 86     0 0 0     0 0 0     23 23 23     47 47 47     67 67 67     141 141 141     157 157 157     171 171 171     181 181 181     0 0 0     0 0 0     0 0 0     0 0 0     0 0 0     0 0 0     
0 0 0     0 0 0     0 0 0     0 0 0     0 0 0     0 0 0     0 0 0     0 0 0     0 0 0     0 0 0     0 0 0     0 0 0     0 0 0     0 0 0     0 0 0     69 69 69     69 69 69     69 69 69     69 69 69     69 69 69     69 69 69     69 69 69     69 69 69     69 69 69     69 69 69     69 69 69     69 69 69     69 69 69     69 69 69     69 69 69     69 69 69     69 69 69     69 69 69     69 69 69     74 74 74     0 0 0     0 0 0     16 16 16     39 39 39     60 60 60     133 133 133     150 150 150     164 164 164     176 176 176     126 126 126     0 0 0     0 0 0     0 0 0     0 0 0     0 0 0     
0 0 0     0 0 0     0 0 0     0 0 0     0 0 0     0 0 0     0 0 0     0 0 0     0 0 0     0 0 0     0 0 0     0 0 0     0 0 0     69 69 69     69 69 69     69 69 69     69 69 69     69 69 69     69 69 69     69 69 69     69 69 69     69 69 69     69 69 69     69 69 69     69 69 69     69 69 69     69 69 69     69 69 69     69 69 69     69 69 69     69 69 69     69 69 69     69 69 69     69 69 69     69 69 69     0 0 0     0 0 0     6 6 6     30 30 30     50 50 50     124 124 124     141 141 141     156 156 156     168 168 168     122 122 122     0 0 0     0 0 0     0 0 0     0 0 0     0 0 0     
0 0 0     0 0 0     0 0 0     0 0 0     0 0 0     0 0 0     0 0 0     0 0 0     0 0 0     0 0 0     0 0 0     0 0 0     69 69 69     69 69 69     69 69 69     69 69 69     69 69 69     69 69 69     69 69 69     69 69 69     69 69 69     69 69 69     69 69 69     69 69 69     69 69 69     69 69 69     69 69 69     69 69 69     69 69 69     69 69 69     69 69 69     69 69 69     69 69 69     69 69 69     69 69 69     0 0 0     0 0 0     0 0 0     18 18 18     39 39 39     113 113 113     130 130 130     145 145 145     103 103 103     114 114 114     0 0 0     0 0 0     0 0 0     0 0 0     0 0 0     
0 0 0     0 0 0     0 0 0     0 0 0     0 0 0     0 0 0     0 0 0     0 0 0     0 0 0     0 0 0     0 0 0     69 69 69     69 69 69     69 69 69     69 69 69     69 69 69     69 69 69     69 69 69     69 69 69     69 69 69     69 69 69     69 69 69     69 69 69     69 69 69     69 69 69     69 69 69     69 69 69     69 69 69     69 69 69     69 69 69     69 69 69     69 69 69     69 69 69     69 69 69     69 69 69     69 69 69     0 0 0     0 0 0     5 5 5     27 27 27     46 46 46     63 63 63     78 78 78     92 92 92     102 102 102     0 0 0     0 0 0     0 0 0     0 0 0     0 0 0     
0 0 0     0 0 0     0 0 0     0 0 0     0 0 0     0 0 0     0 0 0     0 0 0     0 0 0     0 0 0     69 69 69     69 69 69     69 69 69     69 69 69     69 69 69     69 69 69     69 69 69     69 69 69     69 69 69     69 69 69     69 69 69     69 69 69     69 69 69     69 69 69     69 69 69     69 69 69     69 69 69     69 69 69     69 69 69     69 69 69     69 69 69     69 69 69     69 69 69     69 69 69     69 69 69     69 69 69     0 0 0     0 0 0     0 0 0     12 12 12     32 32 32     50 50 50     65 65 65     78 78 78     89 89 89     0 0 0     0 0 0     0 0 0     0 0 0     0 0 0     
0 0 0     0 0 0     0 0 0     0 0 0     0 0 0     0 0 0     0 0 0     0 0 0     0 0 0     69 69 69     69 69 69     69 69 69     69 69 69     69 69 69     69 69 69     69 69 69     69 69 69     69 69 69     69 69 69     69 69 69     69 69 69     69 69 69     69 69 69     69 69 69     69 69 69     69 69 69     69 69 69     69 69 69     69 69 69     69 69 69     69 69 69     69 69 69     69 69 69     69 69 69     69 69 69     69 69 69     80 80 80     0 0 0     0 0 0     0 0 0     15 15 15     34 34 34     49 49 49     62 62 62     69 69 69     0 0 0     0 0 0     0 0 0     0 0 0     0 0 0     
0 0 0     0 0 0     0 0 0     0 0 0     0 0 0     0 0 0     0 0 0     0 0 0     69 69 69     69 69 69     69 69 69     69 69 69     69 69 69     69 69 69     69 69 69     69 69 69     69 69 69     69 69 69     69 69 69     69 69 69     69 69 69     69 69 69     69 69 69     69 69 69     69 69 69     69 69 69     69 69 69     69 69 69     69 69 69     69 69 69     69 69 69     69 69 69     69 69 69     69 69 69     69 69 69     69 69 69     75 75 75     69 69 69     69 69 69     0 0 0     0 0 0     12 12 12     28 28 28     37 37 37     0 0 0     0 0 0     0 0 0     0 0 0     0 0 0     0 0 0     
0 0 0     0 0 0     0 0 0     0 0 0     0 0 0     0 0 0     0 0 0     69 69 69     69 69 69     69 69 69     69 69 69     69 69 69     69 69 69     69 69 69     69 69 69     69 69 69     69 69 69     69 69 69     69 69 69     69 69 69     69 69 69     69 69 69     69 69 69     69 69 69     69 69 69     69 69 69     69 69 69     69 69 69     69 69 69     69 69 69     69 69 69     69 69 69     69 69 69     69 69 69     69 69 69     69 69 69     71 71 71     0 0 0     0 0 0     0 0 0     0 0 0     0 0 0     0 0 0     0 0 0     0 0 0     0 0 0     0 0 0     0 0 0     0 0 0     0 0 0     
0 0 0     0 0 0     0 0 0     0 0 0     0 0 0     0 0 0     69 69 69     69 69 69     69 69 69     69 69 69     69 69 69     69 69 69     69 69 69     69 69 69     69 69 69     69 69 69     69 69 69     69 69 69     69 69 69     69 69 69     69 69 69     69 69 69     69 69 69     69 69 69     69 69 69     69 69 69     69 69 69     69 69 69     69 69 69     69 69 69     69 69 69     69 69 69     25 25 25     0 0 0     0 0 0     0 0 0     0 0 0     0 0 0     0 0 0     0 0 0     0 0 0     0 0 0     0 0 0     0 0 0     0 0 0     0 0 0     0 0 0     0 0 0     0 0 0     0 0 0     
0 0 0     0 0 0     0 0 0     0 0 0     0 0 0     69 69 69     69 69 69     69 69 69     69 69 69     69 69 69     69 69 69     69 69 69     69 69 69     69 69 69     69 69 69     69 69 69     69 69 69     69 69 69     69 69 69     69 69 69     69 69 69     69 69 69     69 69 69     69 69 69     69 69 69     69 69 69     69 69 69     69 69 69     0 0 0     0 0 0     0 0 0     0 0 0     0 0 0     0 0 0     0 0 0     0 0 0     0 0 0     0 0 0     0 0 0     0 0 0     0 0 0     0 0 0     0 0 0     0 0 0     0 0 0     0 0 0     0 0 0     0 0 0     0 0 0     0 0 0     
0 0 0     0 0 0     0 0 0     0 0 0     69 69 69     69 69 69     69 69 69     69 69 69     69 69 69     69 69 69     69 69 69     69 69 69     69 69 69     69 69 69     69 69 69     69 69 69     69 69 69     69 69 69     69 69 69     69 69 69     69 69 69     69 69 69     0 0 0     0 0 0     0 0 0     0 0 0     0 0 0     0 0 0     0 0 0     0 0 0     0 0 0     0 0 0     0 0 0     0 0 0     0 0 0     0 0 0     0 0 0     0 0 0     0 0 0     0 0 0     0 0 0     0 0 0     0 0 0     0 0 0     0 0 0     0 0 0     0 0 0     0 0 0     0 0 0     0 0 0     
0 0 0     0 0 0     0 0 0     69 69 69     69 69 69     69 69 69     69 69 69     69 69 69     69 69 69     69 69 69     69 69 69     69 69 69     69 69 69     69 69 69     69 69 69     69 69 69     69 69 69     0 0 0     0 0 0     0 0 0     0 0 0     0 0 0     0 0 0     0 0 0     0 0 0     0 0 0     0 0 0     0 0 0     0 0 0     0 0 0     0 0 0     0 0 0     0 0 0     0 0 0     0 0 0     0 0 0     0 0 0     0 0 0     0 0 0     0 0 0     0 0 0     0 0 0     0 0 0     0 0 0     0 0 0     0 0 0     0 0 0     0 0 0     0 0 0     0 0 0     
0 0 0     0 0 0     69 69 69     69 69 69     69 69 69     69 69 69     69 69 69     69 69 69     69 69 69     69 69 69     69 69 69     69 69 69     69 69 69     0 0 0     0 0 0     0 0 0     0 0 0     0 0 0     0 0 0     0 0 0     0 0 0     0 0 0     0 0 0     0 0 0     0 0 0     0 0 0     0 0 0     0 0 0     0 0 0     0 0 0     0 0 0     0 0 0     0 0 0     0 0 0     0 0 0     0 0 0     0 0 0     0 0 0     0 0 0     0 0 0     0 0 0     0 0 0     0 0 0     0 0 0     0 0 0     0 0 0     0 0 0     0 0 0     0 0 0     0 0 0     
0 0 0     69 69 69     69 69 69     69 69 69     69 69 69     69 69 69     69 69 69     0 0 0     0 0 0     0 0 0     0 0 0     0 0 0     0 0 0     0 0 0     0 0 0     0 0 0     0 0 0     0 0 0     0 0 0     0 0 0     0 0 0     0 0 0     0 0 0     0 0 0     0 0 0     0 0 0     0 0 0     0 0 0     0 0 0     0 0 0     0 0 0     0 0 0     0 0 0     0 0 0     0 0 0     0 0 0     0 0 0     0 0 0     0 0 0     0 0 0     0 0 0     0 0 0     0 0 0     0 0 0     0 0 0     0 0 0     0 0 0     0 0 0     0 0 0     0 0 0     
69 69 69     69 69 69     0 0 0     0 0 0     0 0 0     0 0 0     0 0 0     0 0 0     0 0 0     0 0 0     0 0 0     0 0 0     0 0 0     0 0 0     0 0 0     0 0 0     0 0 0     0 0 0     0 0 0     0 0 0     0 0 0     0 0 0     0 0 0     0 0 0     0 0 0     0 0 0     0 0 0     0 0 0     0 0 0     0 0 0     0 0 0     0 0 0     0 0 0     0 0 0     0 0 0     0 0 0     0 0 0     0 0 0     0 0 0     0 0 0     0 0 0     0 0 0     0 0 0     0 0 0     0 0 0     0 0 0     0 0 0     0 0 0     0 0 0     0 0 0     
